<svg xmlns="http://www.w3.org/2000/svg" width="124.5px" height="52.1px" viewBox="0 0 124.5 52.1">
						<title>HOTEL ILLUA</title>
						<path d="M0,24h3.9v27.8H0V24z"></path>
						<path d="M19.3,24V47v1.2h1.2h13.4v3.7H15.5V24H19.3z"></path>
						<path d="M44,24V47v1.2h1.2h13.4v3.7H40.2V24H44z"></path>
						<path d="M89.7,24v11c0,4.7,0.7,10.7-3.6,13.9v0c-7,6.6-21.3,2.5-21.2-7.8c0-3.8,0-13.2,0-17.1h4.2v11c-0.6,6.2,0.3,13.3,8.2,13.3c7.8,0,8.8-7.1,8.2-13.3c0,0,0-11,0-11H89.7z"></path>
						<path d="M124.5,51.8h-4.8l-2.5-4.5c-3.5,0-10.6,0-14.1,0l-2.5,4.5H96L110.2,24L124.5,51.8z M110.2,44.3h5.4	c-1.8-3.4-3.6-7.7-5.4-11.2c-1.8,3.4-3.7,7.8-5.4,11.2H110.2z"></path>
						<path d="M21.2,0.5h1.2v5.2h6.3V0.5H30V13h-1.2v-6h-6.3v6h-1.2V0.5z"></path>
						<path d="M45.4,0c1.9,0,3.5,0.6,4.7,1.9C51.4,3.1,52,4.7,52,6.5c0,1.8-0.6,3.4-1.9,4.6c-1.3,1.3-2.8,1.9-4.6,1.9c-1.8,0-3.4-0.6-4.7-1.9c-1.3-1.3-1.9-2.8-1.9-4.6c0-1.2,0.3-2.3,0.9-3.3c0.6-1,1.4-1.8,2.4-2.4C43.1,0.3,44.2,0,45.4,0zM45.4,1.2c-0.9,0-1.8,0.2-2.6,0.7c-0.8,0.5-1.5,1.1-1.9,1.9c-0.5,0.8-0.7,1.7-0.7,2.7c0,1.5,0.5,2.7,1.5,3.7c1,1,2.3,1.5,3.7,1.5c1,0,1.9-0.2,2.7-0.7c0.8-0.5,1.5-1.1,1.9-1.9c0.5-0.8,0.7-1.7,0.7-2.7c0-1-0.2-1.9-0.7-2.7c-0.5-0.8-1.1-1.4-1.9-1.9C47.3,1.5,46.4,1.2,45.4,1.2z"></path>
						<path d="M61,1.5V0.3h6.8v1.2H65v11.2h-1.2V1.5H61z"></path>
						<path d="M76.7,0.3h7.1v1.2H78v3.9h5.9v1.2H78v4.9h5.9v1.2h-7.1V0.3z"></path>
						<path d="M92.9,0.3h1.2v11.2h5.6v1.2h-6.8V0.3z"></path>
					</svg>